<?xml version="1.0" encoding="UTF-8" standalone="no"?>
<!-- Generator: Adobe Illustrator 26.0.1, SVG Export Plug-In . SVG Version: 6.00 Build 0)  -->

<svg
   version="1.1"
   id="Layer_1"
   x="0px"
   y="0px"
   viewBox="0 0 316 316"
   xml:space="preserve"
   sodipodi:docname="dexter-icon.svg"
   inkscape:version="1.3 (0e150ed, 2023-07-21)"
   width="316"
   height="316"
   xmlns:inkscape="http://www.inkscape.org/namespaces/inkscape"
   xmlns:sodipodi="http://sodipodi.sourceforge.net/DTD/sodipodi-0.dtd"
   xmlns="http://www.w3.org/2000/svg"
   xmlns:svg="http://www.w3.org/2000/svg"><defs
   id="defs108">&#10;	&#10;	&#10;	&#10;	&#10;	&#10;	&#10;	&#10;	&#10;	&#10;	&#10;	&#10;	&#10;	&#10;	&#10;	&#10;	&#10;	&#10;</defs><sodipodi:namedview
   id="namedview108"
   pagecolor="#ffffff"
   bordercolor="#000000"
   borderopacity="0.25"
   inkscape:showpageshadow="2"
   inkscape:pageopacity="0.0"
   inkscape:pagecheckerboard="0"
   inkscape:deskcolor="#d1d1d1"
   inkscape:zoom="1.7684262"
   inkscape:cx="199.89525"
   inkscape:cy="228.16898"
   inkscape:window-width="1392"
   inkscape:window-height="1212"
   inkscape:window-x="0"
   inkscape:window-y="25"
   inkscape:window-maximized="0"
   inkscape:current-layer="Layer_1" />&#10;&#10;&#10;<path
   style="clip-rule:evenodd;fill-rule:evenodd;stroke-width:1.17115"
   d="M 109.81297,314.80451 68.199102,292.52314 C 36.135329,268.22649 7.8927581,238.13196 6.0879318,202.31102 4.7678578,175.08366 20.243669,142.90711 44.812518,127.79404 36.692613,112.48694 35.650576,93.141753 44.881423,76.466313 51.127597,65.132642 63.480926,53.735432 77.426322,51.846298 L 106.56898,87.817696 119.90562,81.481312 152.87,66.106142 c -17.55747,-16.479151 -25.53956,-40.578378 3.60723,-52.890088 41.49771,-14.19970907 90.63662,31.201918 109.92638,58.493952 24.70666,36.802374 37.05757,60.185664 44.20676,101.871424 2.49992,20.64546 -11.3802,41.81851 -18.80864,63.18105 18.95007,-7.8799 22.41708,19.80357 16.24344,30.61419 -5.76384,10.22628 -18.66841,16.08771 -32.1351,12.37638 l -79.73518,20.84231 z"
   id="path92"
   sodipodi:nodetypes="ccccccccccccccccc" /><path
   style="clip-rule:evenodd;fill:#f8e5ca;fill-rule:evenodd;stroke-width:1.17115"
   d="M 109.2858,305.8163 C 66.883864,285.69049 29.132409,254.09826 18.095527,218.01637 9.8378121,190.85254 16.499833,161.08478 47.795982,131.71073 c 9.853408,11.6593 36.15576,23.18926 44.901854,25.85901 -13.395365,7.94685 -22.970736,11.0069 -36.850854,15.11308 16.724563,18.95488 70.159748,30.61078 77.030908,31.52755 1.7335,7.16623 8.18881,34.71696 2.84444,45.4663 -18.04222,4.10277 -27.13525,14.39373 -33.51803,21.55996 -10.200349,-2.27944 -14.575209,-4.88679 -19.706815,-6.96881 l 12.769177,26.9664 -3.263919,-18.56457 c 51.353537,20.51384 137.615287,-35.6984 140.603587,-88.19478 -19.09151,12.57267 -44.90548,17.39252 -70.23108,16.74012 -25.8865,-0.71708 -63.706859,-8.92262 -83.902056,-25.40064 7.1504,-3.90874 14.713021,-8.86021 19.77814,-15.37517 l -15.26547,-38.30007 18.042216,9.31292 14.99106,7.23091 c -0.90422,16.74011 6.45168,39.08068 22.48478,48.85199 12.2131,7.62121 25.47065,6.70784 38.37764,4.36373 23.03964,-4.81985 46.00917,-17.8475 64.05502,-30.87515 l 43.78728,77.64172 c -0.13418,3.51844 -1.31765,6.64657 -2.69938,10.22969 6.44806,-6.77592 12.1442,-8.40523 15.82034,-6.71125 4.79071,2.27944 6.4553,10.29096 2.84807,20.06454 -3.47305,8.85794 -11.66186,16.54382 -20.19882,14.06696 -5.13161,-2.80137 -4.29871,-3.12814 -7.0815,-8.01152 0.0725,1.888 -1.31766,3.45036 -3.25666,4.81984 -3.19139,2.21704 -7.77297,3.77714 -9.51252,4.49648 -18.87209,6.63528 -40.55679,12.75849 -62.94468,17.59136 -29.89094,6.45256 -61.03539,10.60497 -88.41291,10.60497 z"
   id="path97"
   sodipodi:nodetypes="cccccccccccccccccccccccccccccsc" /><path
   style="clip-rule:evenodd;fill:#e5a773;fill-rule:evenodd;stroke-width:1.17115"
   d="m 110.25893,272.79105 c 11.17348,-19.7355 42.40193,-21.69157 59.68378,-15.63273 -15.2014,9.83598 -40.73733,18.75746 -59.68378,15.63273 z"
   id="path98" /><path
   style="clip-rule:evenodd;fill-rule:evenodd;stroke-width:1.17115"
   d="m 173.89326,254.74726 c -2.35969,-3.70905 -8.1199,-5.40644 -12.76676,-7.36024 -6.4553,-1.30141 -13.18623,0.3903 -19.84704,0.84869 0.41585,-13.87408 0,-28.46409 -3.26029,-42.9259 29.42604,2.7991 59.12649,-1.17206 88.89585,-13.48263 -7.49009,24.88098 -24.00552,42.33817 -42.12269,55.95014 z"
   id="path99" /><path
   style="clip-rule:evenodd;fill:#db812e;fill-rule:evenodd;stroke-width:1.17115"
   d="m 289.30181,228.89165 c -9.78087,-17.97684 -21.1647,-37.45364 -29.21207,-56.99285 12.49476,7.68588 30.81139,15.37176 42.33303,18.36715 -1.18348,12.56927 -9.50647,25.85901 -13.12096,38.6257 z m -37.54111,-75.6255 c 8.46443,1.75978 36.64051,6.71125 34.62534,-9.44454 -2.77554,-14.98146 -33.65221,-8.98615 -41.63068,-0.78062 -12.70027,-4.16744 -21.24086,-11.59463 -30.46808,-19.21584 -3.3981,-3.1894 -16.51785,-17.45719 -12.91061,-27.095744 11.17711,4.883384 51.07912,14.066964 41.84828,-9.50921 C 234.06301,70.219122 206.72466,72.175198 197.14687,87.8726 181.3894,82.821293 167.78611,73.136217 158.3558,60.253797 c -5.27546,-7.81523 -9.7156,-18.173132 -6.66565,-27.292035 2.49629,-4.625826 5.96693,-8.076191 11.79605,-9.771306 43.79454,-11.333671 80.22954,33.35088 101.94428,61.163702 14.50993,21.624632 46.42864,74.908432 37.89289,101.677402 -13.73868,-1.36948 -46.0817,-23.97215 -51.56267,-32.76541 z"
   id="path100" /><path
   style="clip-rule:evenodd;fill:#91cef4;fill-rule:evenodd;stroke-width:1.17115"
   d="m 128.99503,142.7823 99.86746,10.09354 c -16.866,13.28975 -42.8214,26.9664 -64.75252,25.40403 -18.87513,0 -37.40572,-16.54609 -35.11494,-35.49757 z"
   id="path101" /><path
   style="clip-rule:evenodd;fill-rule:evenodd;stroke-width:1.17115"
   d="m 145.16231,161.66911 c 14.57521,-10.48725 35.11373,-12.70202 44.41711,4.62582 -13.81122,-10.61659 -19.70924,-12.11428 -44.41711,-4.62582 z"
   id="path102" /><path
   style="clip-rule:evenodd;fill:#db812e;fill-rule:evenodd;stroke-width:1.17115"
   d="m 269.59258,151.2488 c -7.63153,0 -14.22827,-2.41106 -20.12629,-6.05884 7.14677,-5.21016 17.14041,-8.27021 25.47065,-5.79789 4.64927,2.02075 6.86511,3.90875 7.28096,5.66854 0.97676,3.58311 -6.10111,6.12125 -12.62532,6.18819 z"
   id="path103" /><path
   style="clip-rule:evenodd;fill:#91cef4;fill-rule:evenodd;stroke-width:1.17115"
   d="M 83.470617,138.41517 C 72.781886,134.9648 63.692476,129.75125 59.110901,120.24204 48.215456,102.20052 58.141396,70.544756 75.281806,66.699545 L 118.2374,132.61728 100.05495,123.82402 C 99.012915,105.91185 88.740032,95.428002 70.628908,95.428002 83.188952,99.205136 94.847188,106.89102 95.473377,121.742 L 73.266639,111.71313 Z"
   id="path104" /><path
   style="clip-rule:evenodd;fill:#f8e5ca;fill-rule:evenodd;stroke-width:1.17115"
   d="m 220.0475,136.26507 -82.24109,-7.81523 c 1.87494,-7.42719 15.75505,-14.07036 19.22206,-16.28513 -16.02947,2.99539 -20.4007,11.0069 -23.87133,15.17775 l -3.95539,-0.58773 c -1.38898,-8.53117 -2.29079,-18.30248 -0.97313,-27.356709 -4.78708,6.840599 -4.0932,17.521859 -4.23343,18.628109 l -13.25513,-21.949128 46.91339,-25.40063 c 10.6162,7.879902 21.79089,16.543824 36.02158,22.795554 -3.8212,13.482634 7.42118,26.313994 17.13437,34.064554 l 10.89544,8.53117 z"
   id="path105" /><path
   style="clip-rule:evenodd;fill:#db812e;fill-rule:evenodd;stroke-width:1.17115"
   d="m 202.83093,90.670561 c 7.08149,-10.487249 28.11201,-14.135036 34.56006,-1.952673 4.5163,10.096941 -12.90336,8.598114 -34.56006,1.952673 z"
   id="path106" />&#10;</svg>
