<?xml version="1.0" encoding="UTF-8" standalone="no"?>
<!-- Generator: Adobe Illustrator 26.0.1, SVG Export Plug-In . SVG Version: 6.00 Build 0)  -->

<svg
   version="1.1"
   id="Layer_1"
   x="0px"
   y="0px"
   viewBox="0 0 316.5094 500.00061"
   xml:space="preserve"
   sodipodi:docname="dexter.svg"
   inkscape:version="1.3 (0e150ed, 2023-07-21)"
   width="316.5094"
   height="500.00061"
   xmlns:inkscape="http://www.inkscape.org/namespaces/inkscape"
   xmlns:sodipodi="http://sodipodi.sourceforge.net/DTD/sodipodi-0.dtd"
   xmlns="http://www.w3.org/2000/svg"
   xmlns:svg="http://www.w3.org/2000/svg"><defs
   id="defs108" /><sodipodi:namedview
   id="namedview108"
   pagecolor="#ffffff"
   bordercolor="#000000"
   borderopacity="0.25"
   inkscape:showpageshadow="2"
   inkscape:pageopacity="0.0"
   inkscape:pagecheckerboard="0"
   inkscape:deskcolor="#d1d1d1"
   inkscape:zoom="0.832"
   inkscape:cx="159.25481"
   inkscape:cy="249.39904"
   inkscape:window-width="1392"
   inkscape:window-height="1212"
   inkscape:window-x="0"
   inkscape:window-y="25"
   inkscape:window-maximized="0"
   inkscape:current-layer="Layer_1" />&#10;&#10;&#10;<g
   id="g108"
   transform="translate(-341.74424,-249.99939)">&#10;	<path
   style="clip-rule:evenodd;fill-rule:evenodd"
   d="m 530.281,713.092 c -6.373,-11.71 -13.263,-22.564 -20.837,-29.909 l -2.646,18.828 -21.756,1.607 -1.033,-6.373 -95.068,11.252 37.144,-40.072 -0.404,-14.694 -24.913,-5.514 -7.579,-66.248 c -26.524,-21.414 -49.887,-47.938 -51.38,-79.509 -1.092,-23.997 11.71,-52.356 32.034,-65.676 -6.717,-13.491 -7.579,-30.541 0.057,-45.238 5.167,-9.989 15.386,-20.034 26.922,-21.699 l 18.142,26.407 c -0.404,-15.559 -2.469,-31.63 -8.381,-47.303 l -32.262,12.054 17.682,-45.121 c -14.928,2.467 -36.51,1.09 -47.247,-13.09 -11.252,-18.313 2.125,-36.857 23.366,-36.857 0.287,-18.714 28.015,-19.977 39.437,-8.839 6.831,-7.864 16.131,-7.118 22.62,-2.871 6.947,4.535 10.851,13.147 5.684,19.576 6.142,3.676 10.276,11.195 9.013,18.714 -3.272,10.677 -13.664,13.721 -23.192,16.245 l 16.765,24.399 -12.572,6.142 c 1.377,5.166 4.077,29.337 6.085,56.663 l 27.269,-13.551 c -14.524,-14.524 -21.127,-35.764 2.984,-46.615 34.328,-12.515 74.977,27.5 90.934,51.554 20.438,32.436 30.655,53.045 36.569,89.785 2.068,18.196 -9.414,36.857 -15.559,55.685 15.676,-6.945 18.544,17.454 13.437,26.982 -4.768,9.013 -15.443,14.179 -26.583,10.908 10.797,6.142 20.609,13.09 28.649,22.618 l 17.11,-17.852 7.807,29.164 c 2.35,-6.145 10.447,-17.224 18.655,-15.215 7.408,2.182 2.356,16.188 0.117,20.783 6.313,-2.984 22.043,-2.125 20.837,8.726 -1.26,8.839 -10.791,11.021 -18.544,11.77 5.056,5.511 10.279,15.499 1.721,21.585 -13.204,7.004 -21.408,-4.996 -25.889,-13.491 -4.478,9.303 -11.198,21.357 -22.677,18.026 -12.114,-7.002 -3.155,-22.16 2.006,-27.901 l -27.093,-7.576 9.929,-12.057 c -3.101,-7.058 -8.669,-11.938 -16.475,-15.039 -7.346,24.455 -6.43,48.908 -1.317,73.654 L 604.507,750 Z"
   id="path92" />&#10;	<path
   style="clip-rule:evenodd;fill-rule:evenodd"
   d="m 597.278,743.175 -65.329,-33.064 c -13.553,-22.677 -16.592,-22.564 -24.054,-31.633 l -3.562,20.839 -17.511,1.781 -0.802,-7.693 -89.039,10.677 32.379,-34.848 0.117,-13.204 c 22.677,3.789 45.466,7.92 68.032,10.333 20.103,2.096 40.235,3.895 60.39,5.397 13.38,23.189 25.605,47.821 39.212,71.014 z m -106.149,-25.662 -0.401,-0.802 z"
   id="path93" />&#10;	<path
   style="clip-rule:evenodd;fill:#ffffff;fill-rule:evenodd"
   d="m 523.508,664.067 -8.097,-78.476 c 9.585,-2.239 33.067,-8.097 45.525,-13.377 10.908,5.394 21.989,12.572 30.945,22.677 l -11.425,11.366 c -5.684,-8.378 -12.114,-12.285 -19.636,-16.188 -13.204,28.532 -5.969,69.463 -4.996,77.731 z m -117.401,-20.725 -7.232,-59.417 c 10.62,5.798 19.061,12.458 29.565,14.64 24.743,0.799 59.474,-6.777 83.699,-12.575 4.191,25.719 4.939,51.727 7.178,77.56 z"
   id="path94" />&#10;	<path
   style="clip-rule:evenodd;fill:#914883;fill-rule:evenodd"
   d="m 600.035,626.349 -24.743,-7.636 34.328,-36.686 8.324,30.945 c 0.916,0.228 0.461,-0.174 1.667,-0.748 1.551,-6.43 8.034,-21.067 16.185,-19.118 7.696,5.053 -4.017,20.555 -5.969,23.309 4.134,-2.185 22.842,-11.024 24.228,1.605 -0.862,11.425 -15.104,10.219 -21.07,9.989 2.583,1.437 7.408,2.413 9.13,14.64 0,6.37 -5.918,11.423 -12.174,7.807 -5.166,-3.041 -9.585,-5.226 -14.982,-19.118 -2.011,6.714 -9.073,24.857 -19.059,22.16 -13.436,-4.472 0.8,-22.441 4.135,-27.149 z"
   id="path95" />&#10;	<path
   style="clip-rule:evenodd;fill-rule:evenodd"
   d="m 505.021,651.669 -0.688,-0.174 c -2.873,-5.627 -2.873,-12.057 -0.805,-18.029 0.174,-0.572 1.323,-1.146 2.068,-0.745 2.128,0.976 2.128,3.846 2.7,5.741 0,4.017 1.778,8.785 -1.494,12.802 -0.401,0.23 -0.973,0.632 -1.551,0.404 h -0.23 z m -3.844,-34.848 c -1.667,-0.344 -2.296,-1.721 -2.99,-3.445 -0.228,-4.248 -0.401,-9.758 2.302,-13.147 0.973,-0.632 2.239,-0.401 3.038,0.29 2.068,4.478 0.922,9.815 0.174,14.581 -0.174,0.975 -1.317,1.951 -2.524,1.721 z"
   id="path96" />&#10;	<path
   style="clip-rule:evenodd;fill:#f8e5ca;fill-rule:evenodd"
   d="m 427.177,593.685 c -35.076,-17.738 -66.305,-45.582 -75.435,-77.383 -6.831,-23.941 -1.32,-50.177 24.569,-76.066 8.151,10.276 29.909,20.438 37.144,22.791 -11.081,7.004 -19.002,9.701 -30.484,13.32 13.835,16.706 58.038,26.979 63.722,27.787 1.434,6.316 6.774,30.598 2.353,40.072 -14.925,3.616 -22.447,12.686 -27.727,19.002 -8.438,-2.009 -12.057,-4.307 -16.302,-6.142 l 10.563,23.767 -2.7,-16.362 c 42.481,18.08 113.839,-31.463 116.311,-77.731 -15.793,11.081 -37.147,15.329 -58.097,14.754 -21.414,-0.632 -52.7,-7.864 -69.406,-22.387 5.915,-3.445 12.171,-7.809 16.361,-13.551 l -12.628,-33.756 14.925,8.208 12.401,6.373 c -0.748,14.754 5.337,34.444 18.6,43.056 10.103,6.717 21.07,5.912 31.747,3.846 19.059,-4.248 38.06,-15.73 52.988,-27.212 l 36.222,68.43 c -0.111,3.101 -1.09,5.858 -2.233,9.016 5.334,-5.972 10.046,-7.408 13.087,-5.915 3.963,2.009 5.34,9.07 2.356,17.684 -2.873,7.807 -9.647,14.581 -16.709,12.398 -4.245,-2.469 -3.556,-2.757 -5.858,-7.061 0.06,1.664 -1.09,3.041 -2.694,4.248 -2.64,1.954 -6.43,3.329 -7.869,3.963 -36.455,13.656 -85.597,24.851 -125.207,24.851 z"
   id="path97" />&#10;	<path
   style="clip-rule:evenodd;fill:#e5a773;fill-rule:evenodd"
   d="m 427.982,564.578 c 9.243,-17.394 35.076,-19.118 49.372,-13.778 -12.575,8.669 -33.699,16.532 -49.372,13.778 z"
   id="path98" />&#10;	<path
   style="clip-rule:evenodd;fill-rule:evenodd"
   d="m 480.622,548.675 c -1.952,-3.269 -6.717,-4.765 -10.561,-6.487 -5.34,-1.147 -10.908,0.344 -16.418,0.748 0.344,-12.228 0,-25.087 -2.697,-37.833 24.342,2.467 48.911,-1.033 73.537,-11.883 -6.196,21.929 -19.858,37.315 -34.845,49.312 z"
   id="path99" />&#10;	<path
   style="clip-rule:evenodd;fill:#db812e;fill-rule:evenodd"
   d="m 576.091,525.887 c -8.091,-15.844 -17.508,-33.01 -24.165,-50.231 10.336,6.774 25.488,13.548 35.019,16.188 -0.979,11.078 -7.864,22.791 -10.854,34.043 z m -31.055,-66.653 c 7.002,1.551 30.31,5.915 28.643,-8.324 -2.296,-13.204 -27.838,-7.92 -34.438,-0.688 -10.506,-3.673 -17.571,-10.219 -25.204,-16.936 -2.811,-2.811 -13.664,-15.386 -10.68,-23.881 9.246,4.304 42.254,12.398 34.618,-8.381 -7.579,-14.984 -30.194,-13.26 -38.117,0.575 -13.035,-4.452 -24.288,-12.988 -32.089,-24.342 -4.364,-6.888 -8.037,-16.017 -5.514,-24.054 2.065,-4.077 4.936,-7.118 9.758,-8.612 36.228,-9.989 66.368,29.394 84.331,53.907 12.003,19.059 38.407,66.021 31.346,89.614 -11.365,-1.207 -38.12,-21.128 -42.654,-28.878 z"
   id="path100" />&#10;	<path
   style="clip-rule:evenodd;fill:#91cef4;fill-rule:evenodd"
   d="m 443.481,449.994 82.613,8.896 c -13.952,11.713 -35.423,23.767 -53.565,22.39 -15.614,0 -30.943,-14.583 -29.048,-31.286 z"
   id="path101" />&#10;	<path
   style="clip-rule:evenodd;fill-rule:evenodd"
   d="m 456.855,466.64 c 12.057,-9.243 29.047,-11.195 36.743,4.077 -11.425,-9.357 -16.304,-10.677 -36.743,-4.077 z"
   id="path102" />&#10;	<path
   style="clip-rule:evenodd;fill:#db812e;fill-rule:evenodd"
   d="m 559.787,457.456 c -6.313,0 -11.77,-2.125 -16.649,-5.34 5.912,-4.592 14.179,-7.289 21.07,-5.11 3.846,1.781 5.679,3.445 6.023,4.996 0.808,3.158 -5.047,5.395 -10.444,5.454 z"
   id="path103" />&#10;	<path
   style="clip-rule:evenodd;fill:#91cef4;fill-rule:evenodd"
   d="m 405.822,446.145 c -8.842,-3.041 -16.361,-7.636 -20.151,-16.017 -9.013,-15.901 -0.802,-43.801 13.377,-47.19 l 35.534,58.097 -15.041,-7.75 c -0.862,-15.787 -9.36,-25.027 -24.342,-25.027 10.39,3.329 20.034,10.103 20.552,23.192 l -18.37,-8.839 z"
   id="path104" />&#10;	<path
   style="clip-rule:evenodd;fill:#f8e5ca;fill-rule:evenodd"
   d="m 518.802,444.25 -68.032,-6.888 c 1.551,-6.546 13.033,-12.401 15.901,-14.353 -13.26,2.64 -16.876,9.701 -19.747,13.377 l -3.272,-0.518 c -1.149,-7.519 -1.895,-16.131 -0.805,-24.111 -3.96,6.029 -3.386,15.443 -3.502,16.418 L 428.38,408.83 467.188,386.443 c 8.782,6.945 18.026,14.581 29.798,20.091 -3.161,11.883 6.139,23.192 14.174,30.023 l 9.013,7.519 z"
   id="path105" />&#10;	<path
   style="clip-rule:evenodd;fill:#db812e;fill-rule:evenodd"
   d="m 504.56,404.065 c 5.858,-9.243 23.255,-12.458 28.589,-1.721 3.736,8.899 -10.674,7.578 -28.589,1.721 z"
   id="path106" />&#10;	<path
   style="clip-rule:evenodd;fill:#ffffff;fill-rule:evenodd"
   d="m 423.043,401.885 c -0.632,-18.026 -2.7,-36.857 -9.417,-54.709 l 13.377,-5.855 c 3.676,18.313 6.085,36.336 5.798,55.397 z"
   id="path107" />&#10;	<path
   style="clip-rule:evenodd;fill:#914883;fill-rule:evenodd"
   d="m 387.967,351.999 14.009,-42.655 c -15.73,5.858 -33.869,5.57 -47.477,-5.625 -7.923,-7.061 -6.029,-23.078 1.721,-29.625 12.802,-8.726 32.148,3.272 36.339,13.377 0.745,2.7 1.377,5.972 -0.748,8.438 -4.592,2.871 -9.989,0.575 -15.098,-0.802 l -4.996,-2.239 -9.186,-5.568 h -0.805 c -0.976,1.952 1.206,3.846 2.125,5.741 6.316,4.936 16.993,10.677 25.317,8.612 3.963,-1.32 5.798,-4.595 7.178,-9.013 1.09,-13.434 -12.458,-21.872 -19.118,-25.835 -2.526,-19.232 31.116,-17.394 36.569,2.353 3.041,-1.26 0.174,-8.609 -0.174,-9.186 2.296,-3.101 6.717,-5.166 10.908,-4.421 8.267,1.149 15.098,8.268 12.057,17.912 -12.802,-3.789 -33.184,1.838 -38.291,9.875 -1.895,2.871 -1.09,5.741 0,8.782 5.858,6.66 27.383,4.304 25.835,-1.149 -7.232,0.748 -16.245,4.538 -22.791,-1.203 -0.688,-1.32 -1.092,-2.583 -0.29,-4.191 6.487,-10.734 37.946,-14.928 42.598,0.632 4.592,14.697 -12.171,16.993 -21.989,20.381 l 14.35,23.249 -13.778,7.462 z"
   id="path108" />&#10;</g>&#10;</svg>
